<svg xmlns="http://www.w3.org/2000/svg" width="95" height="95" viewBox="0 0 95 95"><g transform="translate(-993 -1025)"><circle cx="47.5" cy="47.5" r="47.5" transform="translate(993 1025)" fill="#fff"/><g transform="translate(1007.886 1551.561)"><path d="M256.521-511.439a1.034,1.034,0,0,0-.407.407c-.051.14-.1,1.741-.1,3.583L256-504.108l.318.3a.991.991,0,0,0,1.41.051c.229-.241.241-.534.28-3.723s.013-3.481-.191-3.736A1.084,1.084,0,0,0,256.521-511.439Z" transform="translate(-223.393 0)" fill="#31c5fe"/><path d="M176.716-471.782a1.343,1.343,0,0,0-.445,1.194,21.6,21.6,0,0,0,5.032,3.761,1.027,1.027,0,0,0,.8-1.626,44.261,44.261,0,0,0-4.434-3.278C177.174-471.934,177-471.947,176.716-471.782Z" transform="translate(-153.773 -34.626)" fill="#31c5fe"/><path d="M308.714-471.782a50.341,50.341,0,0,0-4.358,3.342.886.886,0,0,0-.013,1.258.911.911,0,0,0,1.169.216,39.281,39.281,0,0,0,4.536-3.443.971.971,0,0,0-.47-1.372A.724.724,0,0,0,308.714-471.782Z" transform="translate(-265.376 -34.6)" fill="#31c5fe"/><path d="M32.493-423.686a6.791,6.791,0,0,0-3.149,1.615,6.544,6.544,0,0,0-1.562,2.721l-.152.6-13.358.038c-15.136.038-14.082-.038-14.146,1.03-.051.7.025.75,1.371.928.457.064,10.565.114,22.476.114,20.723,0,21.676.013,22.247.229,1.156.458,2.184,1.615,3.39,3.8l.533.979-4.038.038c-3.9.051-4.063.051-4.8.343a5.135,5.135,0,0,0-2.451,2.391,3.542,3.542,0,0,0-.33,2.009,16.942,16.942,0,0,0,1.079,5.481,5.759,5.759,0,0,0,2.616,2.505l.863.407,8.076.064,8.063.064.965.483a4.992,4.992,0,0,1,2.768,3.421,102.776,102.776,0,0,1-.051,11.369,5.408,5.408,0,0,1-2.971,3.522,4.573,4.573,0,0,1-2.463.445l-1.625.051v-.318a8.445,8.445,0,0,0-1.283-3.319,6.666,6.666,0,0,0-2.781-2.48,8.339,8.339,0,0,0-11.174,3.294,10.275,10.275,0,0,0-.762,2.492v.305L29.6-379.089l-10.235-.038-.216-.928a7.7,7.7,0,0,0-6.832-5.99,7.964,7.964,0,0,0-8.99,6.46l-.089.521H2.106c-1.384,0-1.829.191-1.943.814a.882.882,0,0,0,.521,1.094,5.84,5.84,0,0,0,1.448.127H3.249l.089.61a8.137,8.137,0,0,0,2.768,4.705,10.33,10.33,0,0,0,3.263,1.564,10.923,10.923,0,0,0,4.063-.064,7.867,7.867,0,0,0,5.752-5.926l.165-.827L29.6-377l10.247-.025v.305a7.054,7.054,0,0,0,.317,1.335c1.587,5.01,7.835,7.045,12.381,4.018a7.82,7.82,0,0,0,3.2-4.781L55.9-377l1.727-.051a7.378,7.378,0,0,0,4-1.043,8.267,8.267,0,0,0,2.527-2.645c.9-1.628.965-2.136.965-8.037s-.051-6.346-.838-7.859a7.147,7.147,0,0,0-4.787-3.586,5.926,5.926,0,0,1-.9-.229c-.025-.025-1.308-2.416-2.87-5.316-4.99-9.321-5.79-10.593-7.4-11.788-1.3-.941-1.956-1.081-5.549-1.157l-3.124-.051-.241-.827a6.206,6.206,0,0,0-1.765-2.772,7.024,7.024,0,0,0-3-1.323A5.087,5.087,0,0,0,32.493-423.686Zm3,2.4a3.669,3.669,0,0,1,1.816,1.869,4.891,4.891,0,0,1,.254.61c0,.038-1.765.064-3.924.064H29.7l.14-.394a4.18,4.18,0,0,1,2.819-2.518A4.448,4.448,0,0,1,35.49-421.282Zm18.235,16.15c1.321,2.416,2.425,4.463,2.463,4.54.051.127-1.244.165-6.209.165H43.693l-.762-.382c-1.308-.661-1.651-1.284-2.133-3.878-.381-2.047-.394-2.62-.076-3.306a2.91,2.91,0,0,1,1.448-1.386c.152-.038.394-.089.533-.127s2.133-.038,4.444-.025l4.19.013ZM12.43-384.023a6.269,6.269,0,0,1,4.749,4.514,6.125,6.125,0,0,1-4.444,7.376,5.878,5.878,0,0,1-5.727-1.653,5.922,5.922,0,0,1-1.727-5.176A6.12,6.12,0,0,1,12.43-384.023Zm36.787.064a6.175,6.175,0,0,1,4.533,4.451,6.141,6.141,0,0,1-4.444,7.376,6.107,6.107,0,0,1-7.467-5.061,6.126,6.126,0,0,1,4.47-6.727A5.64,5.64,0,0,1,49.216-383.959Z" transform="translate(0 -76.61)" fill="#31c5fe"/><path d="M128.481-327.8a3.221,3.221,0,0,0-1.982,1.664,5.7,5.7,0,0,0-.28,2.376l-.051,1.919-1.919.051c-2.109.051-2.567.178-3.278.953-.673.712-.8,1.131-.851,2.783-.064,1.893.127,2.706.8,3.392.813.839,1.042.9,3.278.953l1.995.051v1.741c0,2.02.165,2.668.839,3.367.813.839,1.029.9,3.24.9h1.982l.61-.381a3.332,3.332,0,0,0,1.016-1c.381-.623.381-.648.419-2.63l.038-2.008,2.008-.038c1.982-.038,2.008-.038,2.63-.419a3.435,3.435,0,0,0,1-1c.368-.6.381-.7.419-2.3.064-2.071-.064-2.567-.826-3.38-.788-.839-1.36-1-3.545-1h-1.677l-.051-2.008c-.051-2.211-.1-2.4-.94-3.24-.661-.648-1.41-.851-3.151-.839A10.887,10.887,0,0,0,128.481-327.8Zm3.443,2.16c.292.241.3.3.368,2.8.051,2.224.089,2.579.292,2.77s.546.241,2.77.292c3.189.076,3.037-.025,3.037,2.1,0,2.02.076,1.969-3.011,1.969a14.873,14.873,0,0,0-2.579.127c-.407.216-.508.851-.508,3.189v2.262l-.33.254c-.292.229-.521.267-1.766.267-1.982,0-1.893.152-1.969-3.062-.051-2.2-.089-2.554-.292-2.744s-.546-.241-2.757-.292-2.567-.089-2.757-.292c-.191-.178-.241-.5-.267-1.652-.064-2.135-.191-2.046,3-2.1,2.363-.038,2.567-.063,2.783-.3s.241-.559.292-2.757a18.521,18.521,0,0,1,.178-2.656c.191-.3.623-.394,1.931-.394C131.429-325.884,131.671-325.845,131.925-325.642Z" transform="translate(-104.762 -160.298)" fill="#31c5fe"/><path d="M.866-279.848a1.087,1.087,0,0,0-.47,1.169c.178.7.229.712,5.044.712H9.862l.3-.318a.934.934,0,0,0,0-1.4l-.3-.318-4.358.013A35.5,35.5,0,0,0,.866-279.848Z" transform="translate(-0.22 -202.118)" fill="#31c5fe"/><path d="M.923-231.672c-.33.089-.623.75-.534,1.194.152.661.432.75,2.516.75,1.83,0,1.893-.013,2.185-.318a.985.985,0,0,0,.076-1.347c-.229-.292-.318-.3-2.135-.33A18.378,18.378,0,0,0,.923-231.672Z" transform="translate(-0.226 -244.254)" fill="#31c5fe"/><path d="M.923-191.672c-.33.089-.623.75-.534,1.194.165.724.368.762,3.6.724,2.668-.038,2.948-.064,3.189-.28a1.054,1.054,0,0,0,0-1.423c-.241-.216-.508-.241-3.151-.267C2.447-191.735,1.05-191.71.923-191.672Z" transform="translate(-0.226 -279.168)" fill="#31c5fe"/></g></g></svg>